# xmcd
#
# Track frame offsets:
#	150
#	18932
#	30658
#	49037
#	67835
#	88103
#	99932
#	111462
#	127133
#	139170
#	155415
#	165944
#	182222
#	196405
#
# Disc length: 2790 seconds
#
# Revision: 0
# Processed by: cddbd v1.4PL0 Copyright (c) Steve Scherf et al.
# Submitted via: dBpowerAMP V4.0
#
DISCID=b70ae40e
DTITLE=Arve Hålands Cajun Gambo - Hei Gumbo
DYEAR=1900
DGENRE=
TTITLE0=No Dansar Vi
TTITLE1=Kor E' Du
TTITLE2=Madeleine
TTITLE3=Heit Zydeco
TTITLE4=Cherie Cherie
TTITLE5=Steike Gal
TTITLE6=Yr Som Ein Bøffel
TTITLE7=Jolie Blonde
TTITLE8=Blues Acadiens
TTITLE9=Du Skulle Satt Han Tå
TTITLE10=Wandering Aces Special
TTITLE11=Zydeco Må Eg Ha
TTITLE12=Ingen Ti' Te Mista No
TTITLE13=Bakka-Lakka-Lao
EXTD=
EXTT0=
EXTT1=
EXTT2=
EXTT3=
EXTT4=
EXTT5=
EXTT6=
EXTT7=
EXTT8=
EXTT9=
EXTT10=
EXTT11=
EXTT12=
EXTT13=
PLAYORDER=
